<?xml version="1.0" encoding="UTF-8"?>
<svg id="Layer_2" data-name="Layer 2" xmlns="http://www.w3.org/2000/svg" viewBox="0 0 408.87 229.12">
  <defs>
    <style>
      .cls-1 {
        stroke-width: .8px;
      }

      .cls-1, .cls-2 {
        fill: #b6bfb8;
        stroke: #000;
        stroke-miterlimit: 10;
      }

      .cls-3 {
        opacity: .7;
      }

      .cls-4 {
        opacity: .61;
      }
    </style>
  </defs>
  <g id="Layer_2-2" data-name="Layer 2">
    <g id="Layer_2-2" data-name="Layer 2-2" class="cls-4">
      <g class="cls-3">
        <g>
          <path class="cls-1" d="M68.3,201.52c16.4-13.6,27.2-26.6,34-36,0,0,17.4-23,36-38,3.2-2.6,7.2-5.2,12.5-6.5,4.4-1.1,5.1,0,8-1,4.9-1.6,8-7.1,14-18,5.2-9.4,7-15.1,7.8-17.9.9-3.3,1.3-5.8,1.7-7.6,1.7-7.7,2.4-13.9-.5-19.5-.8-1.6-2.3-4.4-5-5-2.9-.6-6.3,1.4-8,4-2.6,3.9-.1,7-1,18-.2,2.8-.7,7-1,7-.2,0-.2-4.6,0-9,.6-11.2,2.6-15.9,0-18-1.6-1.3-4.1-1.1-5-1-.8,0-3.5.3-5,2-2.3,2.6,0,6.2,0,16s0,5.5-.5,5.5c-.4,0-1.1-3.6-1.5-6.5-1.2-9.8,1.4-14-1-16-1.9-1.6-6-.9-8,1-2.5,2.5-1.1,6.3-3,11-.3.6-.9,2-1,4v2c0,.9-.8,4-1,4-.1,0,.2-1,1-6,.3-1.5.7-4.4,1-8,.1-1.8.1-2.4,0-3,0-.5-.7-3.7-3-5-2.8-1.6-7.1.4-9,3-1.5,2.1-.3,3.2-2,7-.9,2-1.2,1.8-3,5-1.8,3.4-1.7,4.1-3,6-1.7,2.5-3.7,3.8-4.5,4.5-6.4,5-5.1,16.6-12,30-1.5,2.9-3.2,6.2-6,10-8.1,11.1-14.3,11.5-33,26-9.7,7.6-15,12-15,12-10.6,9-11.8,11-15,11-9.1,0-11.9-15.8-22-17-5.9-.7-11.4,4-15,8"/>
          <path class="cls-1" d="M46.9,167.12c-1.2.6,2.2,9.1,6.6,19.9.7,1.8,2.3,5.1,5.6,11.8,2.2,4.6,2.6,5.1,3.4,5.4,3.4,1.4,8.3-4,20.2-16.7,12.9-13.8,15.7-16.7,15.2-17.3-.8-.9-10.1,5.1-17.5,11-8.2,6.5-10.7,10.1-14.2,9.3-2.8-.6-3.3-3.3-8.7-11.1-.8-1.2-9.1-13.2-10.6-12.4h0v.1Z"/>
          <path class="cls-1" d="M150.8,121.02c.1.3,7.4.2,14-4,15.3-9.6,16.5-33.8,16-34-.3,0-1.9,6.9-8,19-2.6,5.1-3.9,7.7-6,10-6.8,7.4-16.1,8.6-16,9Z"/>
        </g>
        <g>
          <path class="cls-2" d="M171.3,228.12c3.3,1.8,6.6-1.4,17.1-7.5,10.8-6.3,15.5-7.6,15.7-11.7,0-1.9-1-3.3-2.6-6-3.7-6.2-8.8-9.5-10-10.3-8.9-5.9-33-28.9-46.5-53.6-5.3-9.6-7.4-16.8-15.7-23.2-5.7-4.4-11.8-6.6-17.1-8.4,0,0-5.4-1.9-16.7-2.2-1.2,0-3.4,0-4,1.2-.4.9.1,2.4.9,3.3,1.6,1.9,3.4,1,8.5,2.3,2.9.8,5.4,1.8,7.7,2.8,1.5.7,3.5,1.5,3.4,1.7,0,.3-7.7-1.3-16.1-5.1-3.5-1.6-6.2-3.1-10.6-3.7-4.3-.5-6,.4-6.8,1-1.7,1.2-3.5,3.9-2.8,6.3,1.4,4.5,12.2,7.1,18.8,7.3,1.3,0,4.9,0,8.5,2.3,1.2.8,2.7,1.9,2.6,2.2-.2.4-3.6-1.3-7.7-2.8-5.9-2.2-10.6-2.9-14-3.3-7.6-1.1-11.4-1.6-13.3.8-1.7,2.1-1.6,5.9.2,8.1,1.1,1.4,2.6,1.7,6.2,2.4,1.8.4,5.4,1.4,12.8,3.4,3.4.9,6.3,1.9,9.7,4.1.1.1,2.7,1.9,2.6,2.2-.3.6-7.7-3.3-18.8-7.3-8.7-3.2-11.4-3.5-13.1-2-1.8,1.5-2.6,4.9-1.4,7.2,2.1,4.1,8.4,1.2,15.7,6.1,3.7,2.4,2.5,3.4,10.2,10.8,2.3,2.1,4.7,4.4,8.2,7,2.9,2.1,6.2,4.5,11.1,6.3,3.3,1.2,6.2,2.3,10,2.1,5.2-.2,6.1-2.6,9.2-2,3.2.7,5.1,3.6,9.1,10.8,15.4,27.4,21,25.5,25.2,40.2.8,2.7,1.4,5.8,3.9,7.1h0l-.1.1Z"/>
          <path class="cls-2" d="M173.1,210.52h0c-3.5-1.3-8.4-3.8-12.8-8.6-2.6-2.9-1.8-3-7-10.7-7.6-11.3-13.3-16.9-14.8-20.9-.2-.4-.8-2.2-1.6-2.4-.5-.1-.8.4-.8.6-.9,1.8,5.4,10.4,10.8,18.4,8.3,12.1,8.6,13.8,12.5,17.3,4.6,4.2,9.1,6.3,12,7.4"/>
        </g>
        <g>
          <path class="cls-2" d="M312.1,201.92c3.7-3,6.4-10.8,6.9-12.2,1.5-4.4.7-5.1,2.4-8.3,2.8-5.4,6-5.9,7.3-10.4.2-.9,1.4-4.9-.6-7.7-3.1-4.2-11.2-2.4-24.9-2.4-6.9,0-13.6-.9-20.5-1.4-16.6-1.1-47.5-4.2-74.3-10.1-8.5-1.8-15.7-2.3-20.7-2.3-14.5-.1-16.7,2.9-17.2,3.8-.1.2-1.1,1.9-.4,3,.8,1.1,3,1,12.8.1,2.9-.3,4.1-.4,4.2,0,.3.8-3.1,3.1-6.5,4.3-4.6,1.8-7.4,1-11.3,1.5-6.5.8-6.9,3.7-15.4,7.3-11.5,4.8-17.8,2.3-19.8,6.3-1.8,3.4.8,8.8,4.3,9.8,2.2.6,4.1-.7,7.9-2.7,9.7-5.1,18.5-7.3,18.6-7,.1.2-4.1,2.7-9.5,5-9.8,4.1-15.2,4.1-16.4,7.5-.6,1.8.7,4,1,4.7.5.9,1.4,2.6,2.8,3.3,3.1,1.4,6.4-2.3,14.8-5.2,5-1.7,9.1-2.2,9.1-2s-4.9,1.9-13.8,5c-6.7,2.4-8.7,3.1-9.5,5-1.1,2.6.2,6.2,2.6,7.2,1.5.6,2.9,0,10.9-3.4,5.8-2.4,8.8-3.7,11.9-3.6,2.7,0,5.7.9,5.7,1.7,0,.9-4.1,1.4-11.9,3.6-11.4,3.1-12.3,4.8-12.6,5.7-.4,1.9,1.3,4,3.2,5.1,4.3,2.4,9-.7,20.2-4.4,16.2-5.4,20.7-3.7,31.8-9.9,1.6-.9,3.6-2.1,7.5-4.6,11.3-7,13.4-9,15.8-10.3,7.4-3.9,15.6-.4,52.7,12.9,16.3,5.8,25.7,9.1,30.8,5h0l.1.1Z"/>
          <path class="cls-2" d="M210.4,151.72c-1.4.5-3.5,1.2-6.1,1.3-5.6.3-7.5-2-13.4-2.7-6.4-.8-12.4,1-12.4,1.8,0,.7,4.6.8,4.7,1.8,0,1-4.6,1.9-8,2.7-3.8.9-9.7,3.4-21.6,8.5-4.5,1.9-10.1,4.4-16.5,7.4"/>
        </g>
        <g>
          <path class="cls-2" d="M303.4,85.32c26.2-27.7,23.6-20.9,29-29,2.3-3.4,5-8,8.3-7.7,3.7.4,4.8,6.7,10.2,22.4,6.7,19.2,9.9,23.8,7,28.2-2.5,4-6.6,2.8-15.2,6.5-6.6,2.8-7.7,5.1-22.6,18.2-18.2,16.1-24.5,19.7-23.9,26.2.3,3,1.6,2.6,4.7,9.2,1.9,4.1,5.5,13.1,5.2,24.2-.2,7.2-.4,13.3-4.6,16.9-3.3,2.8-6,1.6-10.2,5.7-2.4,2.3-3.2,4.9-6.2,5.8-.6.2-2.9.8-4-.1-4-3.4,9-24.1,7.8-24.8-.6-.4-5.6,4-7.4,10.8-1.4,5.4.2,8.2-2.4,12.9-.8,1.4-2.3,3.9-5.2,4.8-3.1,1-7.1-.1-7.9-2.3-.5-1.3.4-2.5,1.1-4,3.2-6.7.2-15-.5-15-.6,0-2,6.8-1.5,14,.3,3.5.8,5-.2,6-2.1,2-9-.2-10.9-4.4-.9-2,0-2.9.3-8,.2-5.4-.6-9-.7-9s.6,4.4-.3,10c-.6,3.4-.9,5.2-2.2,5.9-2.9,1.7-9.3-1.7-10.8-6.4-.7-2.2.2-3.3,1.3-9,1.6-7.6,1.3-12,1.4-12,.2,0,1.3,16.4-3.6,17.9-1.8.6-3.9-1-4.9-2.2-2.7-3-1.5-6.9-1.5-15.1s-1.1-7.2-.6-11c.6-4.9,2.9-9.1,12.7-20.6,5.3-6.2,7.9-9.2,11.4-12.6,17-16.4,18.8-22.9,46.8-52.4h.1Z"/>
          <path class="cls-2" d="M233.4,165.32c8.8-11.6,17.2-22.3,25.1-32.1,1.3-1.7,3.6-4.4,7-4.8,6.1-.9,9,6.3,17.1,12.2,13.5,9.9,33.8,11.1,41.6,11.6,3.6.2,8.6.3,13.6,3.5,5.5,3.5,5.4,7.1,9.2,10.8,2.7,2.6,7.7,5.7,36.9,3.6,6.3-.4,14.8-1.2,24.9-2.6"/>
        </g>
        <path class="cls-2" d="M253.8,3.02c2.8-2.5,4.9,1.2,20,0,13.4-1,19.6-4.5,23-1,2,2,1.4,4.7,1,13-.3,7,.2,14,0,21-.9,26.3-1.3,39.4,5,44,5.6,4.1,9.9-1.1,18,4,4,2.5,2.2,3.4,13,17,3.1,3.9,5.9,7.2,6,12,0,.3.1,5.2-2,6-1.7.6-4-1.9-6-4-3.4-3.7-3.6-5.6-7-10-2.3-3-5.5-6.3-6-6-.5.4,1.7,4.6,4,8,4.1,6.2,6.5,6.8,11,13,3.5,4.7,6,8.2,5,12-.7,2.6-3,5.2-5,5-1.8-.2-2-2.6-6-8-1.4-1.9-2.6-3.3-5-6-.3-.3-4.7-5.2-5-5-.3.3,4.2,6.6,8,12,3.9,5.6,5.3,7.4,5,10-.4,3-2.8,6.1-5,6-1.2,0-1.8-1.1-7-8-1.3-1.8-.6-.9-3-4-2.4-3.2-3.9-5.3-6-8-2.6-3.4-3.9-5.1-4-5-.2.2,1.9,4.5,5,9,5,7.2,8.4,8.9,9,14,.1.8.5,4.1-1,5-1.2.7-3.2-.2-8-4-4-3.2-6.1-4.8-10-9-9.1-9.8-18-13.9-18-14,.2-.3,18.7,14.1,17,17-.5.9-2.7.6-7,0-1.9-.2-4.7-.6-8-2-1.9-.8-6.6-2.7-10-7-4.5-5.7-4.2-12.6-4-19,.2-7.1,1.8-12.3,2-13,6.9-24.1-30.5-84.8-19-95h0Z"/>
        <path class="cls-2" d="M320.8,85.02c5.6,4.4,9.5,8.8,12,12,4.5,5.7,6.1,9.8,7,13,.8,3,2,7.5,0,9-1.6,1.2-4.8.3-8-2"/>
        <g>
          <path class="cls-2" d="M111.9,94.62c-.7,0-1.7-1.8-2.1-3.9-1.1-5.4,2.7-9,5.5-15.2,1-2.3,1.5-4.2,1.8-5.8,1.2-6.9,0-8.5,1.6-10.3,2.9-3.3,8.8.8,13.1-3.2,1.2-1.2,2.1-2.7,4-3,1.2-.2,2.9,0,4,1,.8.7.7,1.2,2,3,1,1.3,1.5,2,2,2,1.4,0,1.4-3.4,4-5,1.8-1.1,4.4-1.1,6,0,1.2.8,1,1.7,2,2,1.7.5,2.8-2.3,6-3,1.5-.3,3.9-.3,5,1,1.3,1.5.5,3.9,1,4,.4,0,.8-1.5,2-3,1.4-1.7,3.4-2.8,5-3,3.2-.4,4.9,2.8,8,5,4.8,3.5,11.7,1.4,20-1,35.7-10.3,36.2-8.3,39.4-12.2,4-4.9,8.1-13.9,16.4-18.6,2.3-1.3,4.6-2.1,4.9-2.2,1.2-.4,6.7-2,14-.5,4.9,1,10.8,2.3,12.2,6.6.8,2.4.1,5.5-1.8,7.1s-4.4.9-9,.3c-6.7-.9-14.9-1.2-15-.5s6.4,4,14.1,3.5c7.9-.6,14.9-4.5,14.9-4.5,3.5-2,5.4-4,7.9-3.3,2.1.6,3.7,2.9,4.2,4.9s0,3.9-.1,4.4c0,.2-.3.9-.7,1.7-1.4,2.5-3.5,4-4.1,4.4-4.8,3.1-11.6,3-11.6,3.2,0,.1,5,1.2,10-1.4,5.6-2.8,6.5-7.8,8.7-7.3,2.1.5,3.5,5.3,2.3,8.9-.3.8-.6,1.6-1.2,2.4-2.7,4-6.9,5.9-9.5,7-7.2,3-12.9,3.2-12.9,3.5,0,.2,5.2.8,11-1.4,7.9-2.9,10.8-8.5,12.7-7.5,1.6.9,1.6,6-.6,10-4.9,8.9-18.8,9.9-18.6,10.7.1.4,4.5.6,9-1.3,3.9-1.7,6.2-4.2,7.9-3.3.9.5,1,1.7,1.1,2,.4,3.3-4.4,6.4-6.7,8.2-11.6,9.4-25.7,8.9-25.7,8.9-10.7-.3-12.8-5.1-27.3-7,0,0-6.4-.8-15-.5-29.6,1.2-52.8,20.6-55.4,17-.5-.6.3-1.2,1.8-7.1.8-3.2,1.1-5.5,1.7-9.1,2.5-16.6,3.6-22.2.2-27-.5-.7-2.7-3.8-6-4-2.8-.2-5.6,1.8-7,4-2.6,3.9-.1,7-.6,16.5-.3,5.2-1.3,10.1-1.6,10.1-.4,0-.4-4.6-.3-8,.4-12.5,3.2-18.8.6-20.6-1.1-.7-2.8-.5-6,0-2.2.3-3.4.5-4,1-2.7,2.2,0,7.5-.6,17.9,0,.9-.3,5-.8,5s-1-3.4-1.2-6c-.9-10,2.2-14.3-.4-17-1.6-1.8-5-2.1-7-1-2.6,1.4-3.3,5.7-4.8,14.4-.6,3.6-.8,5-.8,5,0,.5-.8,5-.8,5,0,0,5.4-21-.6-24.5-1.4-.8-4-1-6,0-1.2.6-2,1.5-3,3-2,3.2-1.5,5.2-3,9-.2.5-1.1,2-3,5-5.7,9.1-7.7,11.5-8.8,12.8-.8,1-1,1-1.4,1.6-2.7,4.1-1.6,9-2.7,9.1h0l-.3.1Z"/>
          <path class="cls-2" d="M248.6,33.32c-.1-.2,1.6-1.5,4.8-4.2,4.3-3.7,3.8-3.5,4.8-4.2,4.2-2.9,8.9-3.2,11.3-3.3,2-.1,4.2-.2,7,.5,2.5.6,2.8,1.3,5.5,1.8,2.1.4,3.1.3,3.5,1,.5,1-.8,3-2.4,3.4-1.7.4-3.1-1.3-4.8-2.5-4.5-3-10.6-1.3-15.2,0-8.8,2.4-14.5,7.9-14.7,7.6h0l.2-.1Z"/>
          <path class="cls-2" d="M223.7,83.42c0,1.1,18.7-.4,44.1,5.2,6.1,1.4,11.4,2.9,18.2,1.1,10-2.6,17.5-10.8,17.5-10.8,0,0-1,.9-2.9,2.1,0,0-4.6,3-9.6,4.6-8.6,2.8-28.5-2.2-46.4-3.2-10.7-.6-20.9,0-21,.9h0l.1.1Z"/>
        </g>
      </g>
    </g>
  </g>
</svg>